<?xml version="1.0" encoding="UTF-8" standalone="no"?>
<!DOCTYPE svg PUBLIC "-//W3C//DTD SVG 1.1//EN"
 "http://www.w3.org/Graphics/SVG/1.1/DTD/svg11.dtd">
<!-- Generated by graphviz version 2.42.3 (20191010.1750)
 -->
<!-- Title: %3 Pages: 1 -->
<svg width="700pt" height="188pt"
 viewBox="0.00 0.00 699.57 188.00" xmlns="http://www.w3.org/2000/svg" xmlns:xlink="http://www.w3.org/1999/xlink">
<g id="graph0" class="graph" transform="scale(1 1) rotate(0) translate(4 184)">
<title>%3</title>
<polygon fill="white" stroke="transparent" points="-4,4 -4,-184 695.57,-184 695.57,4 -4,4"/>
<!-- late_fees_rev -->
<g id="node1" class="node">
<title>late_fees_rev</title>
<ellipse fill="none" stroke="black" cx="96.9" cy="-90" rx="96.81" ry="18"/>
<text text-anchor="middle" x="96.9" y="-85.8" font-family="Times,serif" font-size="14.00">late_fees_rev ~ Uniform</text>
</g>
<!-- late_payment_rate -->
<g id="node5" class="node">
<title>late_payment_rate</title>
<polygon fill="none" stroke="black" points="438.07,-36 227.74,-36 227.74,0 438.07,0 438.07,-36"/>
<text text-anchor="middle" x="332.9" y="-13.8" font-family="Times,serif" font-size="14.00">late_payment_rate ~ Deterministic</text>
</g>
<!-- late_fees_rev&#45;&gt;late_payment_rate -->
<g id="edge4" class="edge">
<title>late_fees_rev&#45;&gt;late_payment_rate</title>
<path fill="none" stroke="black" d="M146.09,-74.41C180.69,-64.15 227.42,-50.29 265.49,-39"/>
<polygon fill="black" stroke="black" points="266.88,-42.24 275.47,-36.04 264.89,-35.52 266.88,-42.24"/>
</g>
<!-- number_of_transactions -->
<g id="node2" class="node">
<title>number_of_transactions</title>
<polygon fill="none" stroke="black" points="453.98,-108 211.83,-108 211.83,-72 453.98,-72 453.98,-108"/>
<text text-anchor="middle" x="332.9" y="-85.8" font-family="Times,serif" font-size="14.00">number_of_transactions ~ Deterministic</text>
</g>
<!-- number_of_transactions&#45;&gt;late_payment_rate -->
<g id="edge5" class="edge">
<title>number_of_transactions&#45;&gt;late_payment_rate</title>
<path fill="none" stroke="black" d="M332.9,-71.7C332.9,-63.98 332.9,-54.71 332.9,-46.11"/>
<polygon fill="black" stroke="black" points="336.41,-46.1 332.9,-36.1 329.41,-46.1 336.41,-46.1"/>
</g>
<!-- average_transaction_value -->
<g id="node3" class="node">
<title>average_transaction_value</title>
<ellipse fill="none" stroke="black" cx="188.9" cy="-162" rx="144.1" ry="18"/>
<text text-anchor="middle" x="188.9" y="-157.8" font-family="Times,serif" font-size="14.00">average_transaction_value ~ Uniform</text>
</g>
<!-- average_transaction_value&#45;&gt;number_of_transactions -->
<g id="edge1" class="edge">
<title>average_transaction_value&#45;&gt;number_of_transactions</title>
<path fill="none" stroke="black" d="M223.03,-144.41C242.66,-134.87 267.55,-122.77 288.67,-112.5"/>
<polygon fill="black" stroke="black" points="290.31,-115.6 297.77,-108.08 287.25,-109.3 290.31,-115.6"/>
</g>
<!-- average_late_fee -->
<g id="node4" class="node">
<title>average_late_fee</title>
<ellipse fill="none" stroke="black" cx="581.9" cy="-90" rx="109.82" ry="18"/>
<text text-anchor="middle" x="581.9" y="-85.8" font-family="Times,serif" font-size="14.00">average_late_fee ~ Uniform</text>
</g>
<!-- average_late_fee&#45;&gt;late_payment_rate -->
<g id="edge3" class="edge">
<title>average_late_fee&#45;&gt;late_payment_rate</title>
<path fill="none" stroke="black" d="M529.1,-74.15C492.43,-63.85 443.19,-50 403.21,-38.76"/>
<polygon fill="black" stroke="black" points="404.09,-35.38 393.52,-36.04 402.2,-42.12 404.09,-35.38"/>
</g>
<!-- underlying_sales_aud -->
<g id="node6" class="node">
<title>underlying_sales_aud</title>
<ellipse fill="none" stroke="black" cx="477.9" cy="-162" rx="126.77" ry="18"/>
<text text-anchor="middle" x="477.9" y="-157.8" font-family="Times,serif" font-size="14.00">underlying_sales_aud ~ Uniform</text>
</g>
<!-- underlying_sales_aud&#45;&gt;number_of_transactions -->
<g id="edge2" class="edge">
<title>underlying_sales_aud&#45;&gt;number_of_transactions</title>
<path fill="none" stroke="black" d="M443.91,-144.59C424.08,-135.01 398.83,-122.82 377.42,-112.49"/>
<polygon fill="black" stroke="black" points="378.73,-109.24 368.2,-108.04 375.69,-115.54 378.73,-109.24"/>
</g>
</g>
</svg>
