<?xml version="1.0" encoding="UTF-8" standalone="no"?>
<!DOCTYPE svg PUBLIC "-//W3C//DTD SVG 1.1//EN"
 "http://www.w3.org/Graphics/SVG/1.1/DTD/svg11.dtd">
<!-- Generated by graphviz version 2.42.3 (20191010.1750)
 -->
<!-- Title: %3 Pages: 1 -->
<svg width="638pt" height="188pt"
 viewBox="0.00 0.00 637.78 188.00" xmlns="http://www.w3.org/2000/svg" xmlns:xlink="http://www.w3.org/1999/xlink">
<g id="graph0" class="graph" transform="scale(1 1) rotate(0) translate(4 184)">
<title>%3</title>
<polygon fill="white" stroke="transparent" points="-4,4 -4,-184 633.78,-184 633.78,4 -4,4"/>
<!-- average_num_late_purchase_transactions_incuring_late_fees -->
<g id="node1" class="node">
<title>average_num_late_purchase_transactions_incuring_late_fees</title>
<polygon fill="none" stroke="black" points="484.32,-36 33.49,-36 33.49,0 484.32,0 484.32,-36"/>
<text text-anchor="middle" x="258.9" y="-13.8" font-family="Times,serif" font-size="14.00">average_num_late_purchase_transactions_incuring_late_fees ~ Deterministic</text>
</g>
<!-- late_fees_rev -->
<g id="node2" class="node">
<title>late_fees_rev</title>
<ellipse fill="none" stroke="black" cx="96.9" cy="-162" rx="96.81" ry="18"/>
<text text-anchor="middle" x="96.9" y="-157.8" font-family="Times,serif" font-size="14.00">late_fees_rev ~ Uniform</text>
</g>
<!-- percentage_of_late_purchase_transactions_incuring_late_fees -->
<g id="node4" class="node">
<title>percentage_of_late_purchase_transactions_incuring_late_fees</title>
<polygon fill="none" stroke="black" points="486.19,-108 31.62,-108 31.62,-72 486.19,-72 486.19,-108"/>
<text text-anchor="middle" x="258.9" y="-85.8" font-family="Times,serif" font-size="14.00">percentage_of_late_purchase_transactions_incuring_late_fees ~ Deterministic</text>
</g>
<!-- late_fees_rev&#45;&gt;percentage_of_late_purchase_transactions_incuring_late_fees -->
<g id="edge1" class="edge">
<title>late_fees_rev&#45;&gt;percentage_of_late_purchase_transactions_incuring_late_fees</title>
<path fill="none" stroke="black" d="M133.26,-145.29C156.01,-135.46 185.59,-122.68 210.33,-111.99"/>
<polygon fill="black" stroke="black" points="211.76,-115.18 219.55,-108 208.99,-108.76 211.76,-115.18"/>
</g>
<!-- percentage_of_purchases_incuring_late_fees -->
<g id="node3" class="node">
<title>percentage_of_purchases_incuring_late_fees</title>
<ellipse fill="none" stroke="black" cx="420.9" cy="-162" rx="208.76" ry="18"/>
<text text-anchor="middle" x="420.9" y="-157.8" font-family="Times,serif" font-size="14.00">percentage_of_purchases_incuring_late_fees ~ Uniform</text>
</g>
<!-- percentage_of_purchases_incuring_late_fees&#45;&gt;percentage_of_late_purchase_transactions_incuring_late_fees -->
<g id="edge2" class="edge">
<title>percentage_of_purchases_incuring_late_fees&#45;&gt;percentage_of_late_purchase_transactions_incuring_late_fees</title>
<path fill="none" stroke="black" d="M382.1,-144.23C359.79,-134.59 331.55,-122.39 307.74,-112.1"/>
<polygon fill="black" stroke="black" points="309.08,-108.87 298.52,-108.12 306.31,-115.3 309.08,-108.87"/>
</g>
<!-- percentage_of_late_purchase_transactions_incuring_late_fees&#45;&gt;average_num_late_purchase_transactions_incuring_late_fees -->
<g id="edge3" class="edge">
<title>percentage_of_late_purchase_transactions_incuring_late_fees&#45;&gt;average_num_late_purchase_transactions_incuring_late_fees</title>
<path fill="none" stroke="black" d="M258.9,-71.7C258.9,-63.98 258.9,-54.71 258.9,-46.11"/>
<polygon fill="black" stroke="black" points="262.41,-46.1 258.9,-36.1 255.41,-46.1 262.41,-46.1"/>
</g>
</g>
</svg>
