<?xml version="1.0" encoding="UTF-8" standalone="no"?>
<!DOCTYPE svg PUBLIC "-//W3C//DTD SVG 1.1//EN"
 "http://www.w3.org/Graphics/SVG/1.1/DTD/svg11.dtd">
<!-- Generated by graphviz version 2.42.3 (20191010.1750)
 -->
<!-- Title: %3 Pages: 1 -->
<svg width="759pt" height="260pt"
 viewBox="0.00 0.00 758.84 260.00" xmlns="http://www.w3.org/2000/svg" xmlns:xlink="http://www.w3.org/1999/xlink">
<g id="graph0" class="graph" transform="scale(1 1) rotate(0) translate(4 256)">
<title>%3</title>
<polygon fill="white" stroke="transparent" points="-4,4 -4,-256 754.84,-256 754.84,4 -4,4"/>
<!-- average_transaction_value -->
<g id="node1" class="node">
<title>average_transaction_value</title>
<ellipse fill="none" stroke="black" cx="156.33" cy="-234" rx="156.15" ry="18"/>
<text text-anchor="middle" x="156.33" y="-229.8" font-family="Times,serif" font-size="14.00">average_transaction_value ~ Exponential</text>
</g>
<!-- gross_transaction_value -->
<g id="node4" class="node">
<title>gross_transaction_value</title>
<ellipse fill="lightgrey" stroke="black" cx="156.33" cy="-162" rx="131.58" ry="18"/>
<text text-anchor="middle" x="156.33" y="-157.8" font-family="Times,serif" font-size="14.00">gross_transaction_value ~ Normal</text>
</g>
<!-- average_transaction_value&#45;&gt;gross_transaction_value -->
<g id="edge1" class="edge">
<title>average_transaction_value&#45;&gt;gross_transaction_value</title>
<path fill="none" stroke="black" d="M156.33,-215.7C156.33,-207.98 156.33,-198.71 156.33,-190.11"/>
<polygon fill="black" stroke="black" points="159.83,-190.1 156.33,-180.1 152.83,-190.1 159.83,-190.1"/>
</g>
<!-- average_default_fee -->
<g id="node2" class="node">
<title>average_default_fee</title>
<ellipse fill="none" stroke="black" cx="579.33" cy="-162" rx="121.4" ry="18"/>
<text text-anchor="middle" x="579.33" y="-157.8" font-family="Times,serif" font-size="14.00">average_default_fee ~ Uniform</text>
</g>
<!-- default_fee_rev -->
<g id="node3" class="node">
<title>default_fee_rev</title>
<ellipse fill="lightgrey" stroke="black" cx="568.33" cy="-90" rx="101.62" ry="18"/>
<text text-anchor="middle" x="568.33" y="-85.8" font-family="Times,serif" font-size="14.00">default_fee_rev ~ Normal</text>
</g>
<!-- average_default_fee&#45;&gt;default_fee_rev -->
<g id="edge6" class="edge">
<title>average_default_fee&#45;&gt;default_fee_rev</title>
<path fill="none" stroke="black" d="M576.61,-143.7C575.39,-135.98 573.94,-126.71 572.59,-118.11"/>
<polygon fill="black" stroke="black" points="576.02,-117.44 571.01,-108.1 569.11,-118.53 576.02,-117.44"/>
</g>
<!-- gross_afterpay_rev -->
<g id="node6" class="node">
<title>gross_afterpay_rev</title>
<ellipse fill="lightgrey" stroke="black" cx="342.33" cy="-18" rx="114.2" ry="18"/>
<text text-anchor="middle" x="342.33" y="-13.8" font-family="Times,serif" font-size="14.00">gross_afterpay_rev ~ Normal</text>
</g>
<!-- default_fee_rev&#45;&gt;gross_afterpay_rev -->
<g id="edge9" class="edge">
<title>default_fee_rev&#45;&gt;gross_afterpay_rev</title>
<path fill="none" stroke="black" d="M520.12,-74.07C485.37,-63.31 438.28,-48.72 401.29,-37.26"/>
<polygon fill="black" stroke="black" points="402.22,-33.89 391.63,-34.27 400.15,-40.57 402.22,-33.89"/>
</g>
<!-- gross_transaction_value&#45;&gt;gross_afterpay_rev -->
<g id="edge10" class="edge">
<title>gross_transaction_value&#45;&gt;gross_afterpay_rev</title>
<path fill="none" stroke="black" d="M168.82,-143.86C183.54,-124.55 209.55,-93.11 237.33,-72 254.29,-59.1 274.88,-47.91 293.31,-39.18"/>
<polygon fill="black" stroke="black" points="294.83,-42.34 302.44,-34.97 291.89,-35.98 294.83,-42.34"/>
</g>
<!-- default_losses -->
<g id="node8" class="node">
<title>default_losses</title>
<ellipse fill="lightgrey" stroke="black" cx="342.33" cy="-90" rx="96.36" ry="18"/>
<text text-anchor="middle" x="342.33" y="-85.8" font-family="Times,serif" font-size="14.00">default_losses ~ Normal</text>
</g>
<!-- gross_transaction_value&#45;&gt;default_losses -->
<g id="edge4" class="edge">
<title>gross_transaction_value&#45;&gt;default_losses</title>
<path fill="none" stroke="black" d="M199,-144.94C226.65,-134.53 262.81,-120.93 291.88,-109.98"/>
<polygon fill="black" stroke="black" points="293.32,-113.18 301.45,-106.38 290.86,-106.63 293.32,-113.18"/>
</g>
<!-- number_of_transactions -->
<g id="node5" class="node">
<title>number_of_transactions</title>
<ellipse fill="none" stroke="black" cx="603.33" cy="-234" rx="147.52" ry="18"/>
<text text-anchor="middle" x="603.33" y="-229.8" font-family="Times,serif" font-size="14.00">number_of_transactions ~ Exponential</text>
</g>
<!-- number_of_transactions&#45;&gt;default_fee_rev -->
<g id="edge7" class="edge">
<title>number_of_transactions&#45;&gt;default_fee_rev</title>
<path fill="none" stroke="black" d="M661.39,-217.44C679.97,-209.42 698.51,-197.5 709.33,-180 717.74,-166.39 718.43,-157.15 709.33,-144 696.29,-125.18 675.68,-113.03 654.21,-105.19"/>
<polygon fill="black" stroke="black" points="655.23,-101.85 644.64,-101.99 653.01,-108.48 655.23,-101.85"/>
</g>
<!-- number_of_transactions&#45;&gt;gross_transaction_value -->
<g id="edge2" class="edge">
<title>number_of_transactions&#45;&gt;gross_transaction_value</title>
<path fill="none" stroke="black" d="M516.61,-219.42C439.79,-207.39 327.95,-189.88 249.3,-177.56"/>
<polygon fill="black" stroke="black" points="249.82,-174.1 239.4,-176.01 248.74,-181.01 249.82,-174.1"/>
</g>
<!-- loss_rate -->
<g id="node7" class="node">
<title>loss_rate</title>
<ellipse fill="none" stroke="black" cx="373.33" cy="-162" rx="66.91" ry="18"/>
<text text-anchor="middle" x="373.33" y="-157.8" font-family="Times,serif" font-size="14.00">loss_rate ~ Beta</text>
</g>
<!-- loss_rate&#45;&gt;default_fee_rev -->
<g id="edge5" class="edge">
<title>loss_rate&#45;&gt;default_fee_rev</title>
<path fill="none" stroke="black" d="M411.85,-147.17C441.65,-136.47 483.23,-121.55 516.04,-109.77"/>
<polygon fill="black" stroke="black" points="517.24,-113.06 525.47,-106.38 514.88,-106.47 517.24,-113.06"/>
</g>
<!-- loss_rate&#45;&gt;default_losses -->
<g id="edge3" class="edge">
<title>loss_rate&#45;&gt;default_losses</title>
<path fill="none" stroke="black" d="M365.82,-144.05C362.3,-136.09 358.01,-126.41 354.07,-117.51"/>
<polygon fill="black" stroke="black" points="357.23,-116 349.98,-108.28 350.83,-118.84 357.23,-116"/>
</g>
<!-- default_losses&#45;&gt;gross_afterpay_rev -->
<g id="edge8" class="edge">
<title>default_losses&#45;&gt;gross_afterpay_rev</title>
<path fill="none" stroke="black" d="M342.33,-71.7C342.33,-63.98 342.33,-54.71 342.33,-46.11"/>
<polygon fill="black" stroke="black" points="345.83,-46.1 342.33,-36.1 338.83,-46.1 345.83,-46.1"/>
</g>
</g>
</svg>
